<svg width="215" height="160" viewBox="0 0 215 160" fill="none" xmlns="http://www.w3.org/2000/svg">
<path d="M195 -30.7814C191.145 -33.3949 181.513 -38.3928 180.24 -40.4074C179.158 -42.092 178.066 -43.9184 179.232 -46.5345C180.16 -48.6101 183.099 -48.4735 184.724 -47.9452C188.395 -46.7289 191.936 -44.8504 195.234 -42.7582C206.098 -35.9425 216.927 -28.9966 227.69 -21.9756C230.695 -20.0082 233.776 -17.974 232.808 -13.4921C231.781 -8.7933 228.118 -7.9618 224.248 -7.74373C209.279 -6.8737 194.302 -6.14541 179.348 -5.50386C174.596 -5.28973 172.554 -7.55688 172.4 -9.41104C172.135 -13.1077 174.772 -14.4466 177.856 -15.2007C182.482 -16.3319 187.203 -17.298 191.891 -18.8311C180.253 -22.4142 168.68 -26.5843 156.175 -25.1936C141.978 -23.5591 135.193 -11.943 140.603 1.17441C143.931 9.22484 149.677 15.3663 156.853 19.9853C165.526 25.6097 174.813 30.3295 183.397 36.1158C189.535 40.2707 195.875 44.7122 200.54 50.3781C210.316 62.2946 206.201 75.7419 191.86 81.3821C181.675 85.3931 171.251 84.7385 160.699 83.352C152.743 82.336 144.698 81.4818 136.727 81.3913C129.028 81.3271 120.673 82.6678 118.253 91.177C115.942 99.1108 122.11 104.715 128.066 108.682C136.199 114.068 145.157 118.281 153.568 123.324C160.577 127.526 167.982 131.463 174.024 136.847C186.814 148.27 185.048 163.88 170.622 173.309C159.521 180.562 144.398 179.578 133.889 178.203C123.065 176.79 119.928 176.182 105.065 172.664C101.04 171.725 94.9737 170.425 96.5341 164.428C98.106 158.388 103.995 160.524 108 161.364C124.173 164.675 128.985 165.453 140.899 166.786C148.303 167.608 158.443 167.583 164.959 163.564C171.419 159.578 173.945 149.284 166.501 143.757C157.433 137.004 147.05 132.037 137.359 126.047C129.662 121.288 121.248 117.128 114.872 110.91C99.3235 95.7272 105.239 75.5574 126.216 69.7892C128.973 69.0405 131.86 68.3266 134.657 68.4717C143.712 68.8527 152.802 69.8007 161.869 70.1384C170.022 70.4172 178.299 71.101 186.28 69.9391C195.135 68.6395 196.962 62.3422 190.178 56.4338C183.287 50.4037 174.942 45.9829 167.307 40.8225C158.605 34.9581 149.425 29.6628 141.303 23.0239C132.793 16.0952 127.639 6.53284 126.302 -4.61C124.801 -17.0517 131.236 -28.5757 142.514 -34.0605C151.552 -38.472 161.048 -39.042 170.802 -37.4511C175.7 -36.6499 187.679 -33.3007 195 -30.7814Z" fill="#FF725F"/>
</svg>
