<svg width="33" height="32" viewBox="0 0 33 32" fill="none" xmlns="http://www.w3.org/2000/svg">
<path d="M21.5248 4.84888H10.7783C7.80934 4.84888 5.39404 7.26489 5.39404 10.2347V20.0691C5.39404 23.0389 7.80934 25.4549 10.7783 25.4549H21.5248C24.4938 25.4549 26.9091 23.0389 26.9091 20.0691V10.2347C26.9091 7.26489 24.4938 4.84888 21.5248 4.84888ZM7.29343 10.2347C7.29343 8.31284 8.85698 6.74882 10.7783 6.74882H21.5248C23.4461 6.74882 25.0097 8.31284 25.0097 10.2347V20.0691C25.0097 21.991 23.4461 23.555 21.5248 23.555H10.7783C8.85698 23.555 7.29343 21.991 7.29343 20.0691V10.2347Z" fill="#0A142F"/>
<path d="M16.1516 20.1608C18.9124 20.1608 21.1598 17.914 21.1598 15.1511C21.1598 12.3882 18.9136 10.1414 16.1516 10.1414C13.3895 10.1414 11.1433 12.3882 11.1433 15.1511C11.1433 17.914 13.3895 20.1608 16.1516 20.1608ZM16.1516 12.0425C17.866 12.0425 19.2604 13.4374 19.2604 15.1523C19.2604 16.8672 17.866 18.2621 16.1516 18.2621C14.4371 18.2621 13.0427 16.8672 13.0427 15.1523C13.0427 13.4374 14.4371 12.0425 16.1516 12.0425Z" fill="#0A142F"/>
<path d="M21.6231 10.9506C22.3665 10.9506 22.9725 10.3457 22.9725 9.60078C22.9725 8.85589 22.3677 8.25098 21.6231 8.25098C20.8784 8.25098 20.2737 8.85589 20.2737 9.60078C20.2737 10.3457 20.8784 10.9506 21.6231 10.9506Z" fill="#0A142F"/>
</svg>
