<svg width="64" height="64" viewBox="0 0 64 64" fill="none" xmlns="http://www.w3.org/2000/svg">
<circle cx="32" cy="32" r="32" fill="#FF0209"/>
<circle cx="32" cy="32" r="32" fill="url(#paint0_linear_240_392)"/>
<path d="M38.3688 20H26.1312C22.7504 20 20 22.7512 20 26.133V37.3319C20 40.7137 22.7504 43.4649 26.1312 43.4649H38.3688C41.7496 43.4649 44.5 40.7137 44.5 37.3319V26.133C44.5 22.7512 41.7496 20 38.3688 20ZM22.1629 26.133C22.1629 23.9446 23.9434 22.1635 26.1312 22.1635H38.3688C40.5566 22.1635 42.3371 23.9446 42.3371 26.133V37.3319C42.3371 39.5204 40.5566 41.3014 38.3688 41.3014H26.1312C23.9434 41.3014 22.1629 39.5204 22.1629 37.3319V26.133Z" fill="white"/>
<path d="M32.25 37.436C35.3939 37.436 37.9531 34.8774 37.9531 31.7312C37.9531 28.585 35.3953 26.0264 32.25 26.0264C29.1047 26.0264 26.5469 28.585 26.5469 31.7312C26.5469 34.8774 29.1047 37.436 32.25 37.436ZM32.25 28.1914C34.2023 28.1914 35.7901 29.7797 35.7901 31.7326C35.7901 33.6855 34.2023 35.2738 32.25 35.2738C30.2977 35.2738 28.7098 33.6855 28.7098 31.7326C28.7098 29.7797 30.2977 28.1914 32.25 28.1914Z" fill="white"/>
<path d="M38.481 26.948C39.3275 26.948 40.0176 26.2591 40.0176 25.4109C40.0176 24.5627 39.3289 23.8738 38.481 23.8738C37.633 23.8738 36.9443 24.5627 36.9443 25.4109C36.9443 26.2591 37.633 26.948 38.481 26.948Z" fill="white"/>
<defs>
<linearGradient id="paint0_linear_240_392" x1="9.3501" y1="54.6499" x2="54.6499" y2="9.35234" gradientUnits="userSpaceOnUse">
<stop stop-color="#FAAD4F"/>
<stop offset="0.35" stop-color="#DD2A7B"/>
<stop offset="0.62" stop-color="#9537B0"/>
<stop offset="1" stop-color="#515BD4"/>
</linearGradient>
</defs>
</svg>
