<svg width="64" height="64" viewBox="0 0 64 64" fill="none" xmlns="http://www.w3.org/2000/svg">
<circle cx="32" cy="32" r="32" fill="#1C1C1B"/>
<circle cx="32" cy="32" r="32" fill="#1C1C1B"/>
<circle cx="32" cy="32" r="32" fill="#039BE5"/>
<circle cx="32" cy="32" r="18" fill="#039BE5"/>
<path d="M19.2774 30.4953L43.6064 21.1148C44.7356 20.7069 45.7218 21.3903 45.3559 23.0977L45.358 23.0956L41.2156 42.6114C40.9086 43.995 40.0864 44.3315 38.9362 43.6796L32.6279 39.0304L29.5851 41.9617C29.2487 42.2981 28.9648 42.582 28.313 42.582L28.7609 36.1622L40.4523 25.6C40.9611 25.1521 40.3387 24.8998 39.6679 25.3456L25.2198 34.4422L18.9914 32.4992C17.6393 32.0702 17.6099 31.1471 19.2774 30.4953Z" fill="white"/>
</svg>
