<svg width="88" height="32" viewBox="0 0 88 32" fill="none" xmlns="http://www.w3.org/2000/svg">
<circle cx="16" cy="16" r="16" fill="white"/>
<path d="M8.04169 8L14.7338 16.9229L8 24.1778H9.51596L15.412 17.8263L20.1754 24.1778H25.3333L18.265 14.753L24.5332 8H23.0172L17.5878 13.8496L13.2006 8H8.0427H8.04169ZM10.2704 9.11333H12.6394L23.1026 23.0644H20.7336L10.2704 9.11333Z" fill="white"/>
<path d="M8.04169 8L14.7338 16.9229L8 24.1778H9.51596L15.412 17.8263L20.1754 24.1778H25.3333L18.265 14.753L24.5332 8H23.0172L17.5878 13.8496L13.2006 8H8.0427H8.04169ZM10.2704 9.11333H12.6394L23.1026 23.0644H20.7336L10.2704 9.11333Z" fill="#1C1C1B"/>
<path d="M40.0702 20.5H38.1754L41.1754 16.2544L38.193 11.9211H40.1053L42.2807 15.114L44.4035 11.9211H46.2807L43.2982 16.2544L46.2281 20.5H44.3158L42.1754 17.3596L40.0702 20.5ZM48.8161 20.7105C48.1319 20.7105 47.5529 20.1491 47.5529 19.4825C47.5529 18.7982 48.1319 18.2368 48.8161 18.2368C49.4827 18.2368 50.0617 18.7982 50.0617 19.4825C50.0617 20.1491 49.4827 20.7105 48.8161 20.7105ZM51.344 16.2193C51.344 13.5351 53.0458 11.6754 55.5546 11.6754C57.7124 11.6754 59.2212 12.9035 59.5195 14.8158H57.8703C57.5896 13.7281 56.7124 13.1491 55.6072 13.1491C54.0458 13.1491 52.9756 14.3421 52.9756 16.2018C52.9756 18.0439 53.9756 19.2368 55.537 19.2368C56.7124 19.2368 57.5896 18.6228 57.8879 17.6053H59.537C59.2037 19.4649 57.6072 20.7105 55.537 20.7105C53.0107 20.7105 51.344 18.9211 51.344 16.2193ZM60.7156 16.2018C60.7156 13.5526 62.6103 11.693 65.1893 11.693C67.7507 11.693 69.6454 13.5526 69.6454 16.2018C69.6454 18.8509 67.7507 20.7105 65.1893 20.7105C62.6103 20.7105 60.7156 18.8509 60.7156 16.2018ZM62.3823 16.2018C62.3823 17.9912 63.5226 19.2368 65.1893 19.2368C66.8384 19.2368 67.9963 17.9912 67.9963 16.2018C67.9963 14.4123 66.8384 13.1667 65.1893 13.1667C63.5226 13.1667 62.3823 14.4123 62.3823 16.2018ZM73.1201 20.5H71.4709V11.9211H72.9446L73.1025 13.0439C73.5411 12.2368 74.4534 11.6754 75.6639 11.6754C76.9973 11.6754 77.9446 12.3421 78.3832 13.4123C78.7867 12.3421 79.8218 11.6754 81.1552 11.6754C83.1201 11.6754 84.313 12.9035 84.313 14.886V20.5H82.699V15.2895C82.699 13.9386 81.9446 13.1667 80.7867 13.1667C79.5411 13.1667 78.7166 14.0439 78.7166 15.4123V20.5H77.085V15.2719C77.085 13.9211 76.3481 13.1842 75.1902 13.1842C73.9446 13.1842 73.1201 14.0439 73.1201 15.4123V20.5Z" fill="white"/>
</svg>
