<svg width="64" height="64" viewBox="0 0 64 64" fill="none" xmlns="http://www.w3.org/2000/svg">
<circle cx="32" cy="32" r="31.5" fill="#FF0209" stroke="#FF0209"/>
<path d="M42.3414 43.3347C41.5921 43.416 40.8251 43.4302 40.0899 43.4284C34.3553 43.4231 28.6207 43.4178 22.8879 43.4143C21.0835 43.4143 19.1184 43.3559 17.7241 42.2087C16.153 40.9129 15.8261 38.6661 15.6988 36.6332C15.5221 33.8473 15.508 31.0525 15.6529 28.2648C15.7324 26.7339 15.872 25.1659 16.5312 23.78C17.0048 22.7848 17.7947 21.8903 18.8056 21.4201C19.9808 20.8739 21.2108 20.9711 22.4761 20.9693C25.5051 20.9658 28.5341 20.964 31.5631 20.9605C34.7123 20.957 37.8633 20.9552 41.0124 20.9517C42.5004 20.9517 44.098 20.9817 45.3121 21.8426C46.8796 22.9527 47.3055 25.0652 47.5016 26.9761C47.8639 30.4957 47.8692 34.0523 47.5158 37.5719C47.3691 39.0232 47.1252 40.5576 46.1691 41.6589C45.2219 42.7514 43.817 43.1721 42.3431 43.333L42.3414 43.3347Z" fill="white"/>
<path d="M36.7943 32.1927L28.248 27.2572V37.1282L36.7943 32.1927Z" fill="#FF0209"/>
</svg>
