<svg width="32" height="32" viewBox="0 0 32 32" fill="none" xmlns="http://www.w3.org/2000/svg">
<path fill-rule="evenodd" clip-rule="evenodd" d="M28.9161 7.53393C29.7516 8.38588 30.0243 10.3205 30.0243 10.3205C30.0243 10.3205 30.3031 12.593 30.3031 14.8645V16.9949C30.3031 19.2673 30.0243 21.5389 30.0243 21.5389C30.0243 21.5389 29.7516 23.4735 28.9161 24.3255C27.9609 25.3333 26.9018 25.4374 26.3031 25.4963C26.2373 25.5028 26.177 25.5087 26.123 25.5152C22.2217 25.7995 16.3637 25.8083 16.3637 25.8083C16.3637 25.8083 9.11523 25.7416 6.88492 25.5257C6.77925 25.5059 6.65115 25.4904 6.50609 25.4729C5.79962 25.3875 4.69078 25.2536 3.81041 24.3255C2.97492 23.4735 2.7031 21.5389 2.7031 21.5389C2.7031 21.5389 2.42432 19.2673 2.42432 16.9949V14.8645C2.42432 12.593 2.7031 10.3205 2.7031 10.3205C2.7031 10.3205 2.97492 8.38588 3.81041 7.53393C4.76776 6.52468 5.82792 6.42168 6.42664 6.3635C6.49156 6.3572 6.55105 6.35142 6.60439 6.34507C10.5057 6.06079 16.3576 6.06079 16.3576 6.06079H16.3698C16.3698 6.06079 22.2217 6.06079 26.123 6.34507C26.1764 6.35143 26.2359 6.35721 26.3009 6.36353C26.8991 6.42171 27.9597 6.52484 28.9161 7.53393ZM13.4843 11.6874L13.4851 19.576L21.0168 15.6453L13.4843 11.6874Z" fill="#0A142F"/>
</svg>
